<svg id="visual" viewBox="0 0 900 600" width="900" height="600" xmlns="http://www.w3.org/2000/svg" xmlns:xlink="http://www.w3.org/1999/xlink" version="1.1"><path d="M0 115L13.7 117C27.3 119 54.7 123 82 125C109.3 127 136.7 127 163.8 132C191 137 218 147 245.2 146C272.3 145 299.7 133 327 124C354.3 115 381.7 109 409 117C436.3 125 463.7 147 491 143C518.3 139 545.7 109 573 95C600.3 81 627.7 83 654.8 92C682 101 709 117 736.2 114C763.3 111 790.7 89 818 84C845.3 79 872.7 91 886.3 97L900 103L900 0L886.3 0C872.7 0 845.3 0 818 0C790.7 0 763.3 0 736.2 0C709 0 682 0 654.8 0C627.7 0 600.3 0 573 0C545.7 0 518.3 0 491 0C463.7 0 436.3 0 409 0C381.7 0 354.3 0 327 0C299.7 0 272.3 0 245.2 0C218 0 191 0 163.8 0C136.7 0 109.3 0 82 0C54.7 0 27.3 0 13.7 0L0 0Z" fill="#f8fafc"></path><path d="M0 157L13.7 160C27.3 163 54.7 169 82 175C109.3 181 136.7 187 163.8 194C191 201 218 209 245.2 205C272.3 201 299.7 185 327 183C354.3 181 381.7 193 409 203C436.3 213 463.7 221 491 215C518.3 209 545.7 189 573 180C600.3 171 627.7 173 654.8 174C682 175 709 175 736.2 169C763.3 163 790.7 151 818 150C845.3 149 872.7 159 886.3 164L900 169L900 101L886.3 95C872.7 89 845.3 77 818 82C790.7 87 763.3 109 736.2 112C709 115 682 99 654.8 90C627.7 81 600.3 79 573 93C545.7 107 518.3 137 491 141C463.7 145 436.3 123 409 115C381.7 107 354.3 113 327 122C299.7 131 272.3 143 245.2 144C218 145 191 135 163.8 130C136.7 125 109.3 125 82 123C54.7 121 27.3 117 13.7 115L0 113Z" fill="#f6f9fb"></path><path d="M0 385L13.7 389C27.3 393 54.7 401 82 404C109.3 407 136.7 405 163.8 390C191 375 218 347 245.2 344C272.3 341 299.7 363 327 367C354.3 371 381.7 357 409 362C436.3 367 463.7 391 491 387C518.3 383 545.7 351 573 336C600.3 321 627.7 323 654.8 322C682 321 709 317 736.2 324C763.3 331 790.7 349 818 364C845.3 379 872.7 391 886.3 397L900 403L900 167L886.3 162C872.7 157 845.3 147 818 148C790.7 149 763.3 161 736.2 167C709 173 682 173 654.8 172C627.7 171 600.3 169 573 178C545.7 187 518.3 207 491 213C463.7 219 436.3 211 409 201C381.7 191 354.3 179 327 181C299.7 183 272.3 199 245.2 203C218 207 191 199 163.8 192C136.7 185 109.3 179 82 173C54.7 167 27.3 161 13.7 158L0 155Z" fill="#f5f7fa"></path><path d="M0 481L13.7 487C27.3 493 54.7 505 82 508C109.3 511 136.7 505 163.8 482C191 459 218 419 245.2 412C272.3 405 299.7 431 327 441C354.3 451 381.7 445 409 445C436.3 445 463.7 451 491 441C518.3 431 545.7 405 573 390C600.3 375 627.7 371 654.8 370C682 369 709 371 736.2 383C763.3 395 790.7 417 818 430C845.3 443 872.7 447 886.3 449L900 451L900 401L886.3 395C872.7 389 845.3 377 818 362C790.7 347 763.3 329 736.2 322C709 315 682 319 654.8 320C627.7 321 600.3 319 573 334C545.7 349 518.3 381 491 385C463.7 389 436.3 365 409 360C381.7 355 354.3 369 327 365C299.7 361 272.3 339 245.2 342C218 345 191 373 163.8 388C136.7 403 109.3 405 82 402C54.7 399 27.3 391 13.7 387L0 383Z" fill="#eaeef4"></path><path d="M0 601L13.7 601C27.3 601 54.7 601 82 601C109.3 601 136.7 601 163.8 601C191 601 218 601 245.2 601C272.3 601 299.7 601 327 601C354.3 601 381.7 601 409 601C436.3 601 463.7 601 491 601C518.3 601 545.7 601 573 601C600.3 601 627.7 601 654.8 601C682 601 709 601 736.2 601C763.3 601 790.7 601 818 601C845.3 601 872.7 601 886.3 601L900 601L900 449L886.3 447C872.7 445 845.3 441 818 428C790.7 415 763.3 393 736.2 381C709 369 682 367 654.8 368C627.7 369 600.3 373 573 388C545.7 403 518.3 429 491 439C463.7 449 436.3 443 409 443C381.7 443 354.3 449 327 439C299.7 429 272.3 403 245.2 410C218 417 191 457 163.8 480C136.7 503 109.3 509 82 506C54.7 503 27.3 491 13.7 485L0 479Z" fill="#dfe5ef"></path></svg>